# xmcd
#
# Track frame offsets:
#	150
#	13769
#	26350
#	34933
#	42755
#	56456
#	66805
#	80995
#	95335
#	106929
#	117271
#	131785
#	139752
#	155902
#	168955
#	183322
#	193505
#	206561
#	222883
#	236036
#	248840
#	263739
#	280277
#	293335
# Disc length: 4082 seconds
# Revision: 1
# Processed by: cddbd v1.5PL3 Copyright (c) Steve Scherf et al.
#
# Submitted via: libkcddb 0.10
#
DISCID=5b0ff018
DTITLE=Billie Holiday - The Cream Of Billie Holiday
DYEAR=1900
DGENRE=Unknown
TTITLE0=God Bless The Child
TTITLE1=My Man
TTITLE2=Please Don't Talk About Me
TTITLE3=Swing Brother Swing
TTITLE4=Billie's Blues
TTITLE5=Lover Come Back To Me
TTITLE6=Don't Be Late
TTITLE7=They Can't Take That Away From Me
TTITLE8=Nice Work If You Can Get It
TTITLE9=Nobody's Business
TTITLE10=Don't Explain
TTITLE11=Miss Brown To You
TTITLE12=Ghost Of A Dance
TTITLE13=He's Funny That Way
TTITLE14=Lover Man
TTITLE15=Detour Head
TTITLE16=Summertime
TTITLE17=Stormy Weather
TTITLE18=I've Got My Love To Keep Me Warm
TTITLE19=A Fine Romance
TTITLE20=These Foolish Things
TTITLE21=Autumn In New York
TTITLE22=East Of The Sun
TTITLE23=I Only Have Eyes For You
EXTD=
EXTT0=
EXTT1=
EXTT2=
EXTT3=
EXTT4=
EXTT5=
EXTT6=
EXTT7=
EXTT8=
EXTT9=
EXTT10=
EXTT11=
EXTT12=
EXTT13=
EXTT14=
EXTT15=
EXTT16=
EXTT17=
EXTT18=
EXTT19=
EXTT20=
EXTT21=
EXTT22=
EXTT23=
PLAYORDER=
